<?xml version="1.0" standalone="no"?>
<!DOCTYPE svg PUBLIC "-//W3C//DTD SVG 20010904//EN"
 "http://www.w3.org/TR/2001/REC-SVG-20010904/DTD/svg10.dtd">
<svg version="1.0" xmlns="http://www.w3.org/2000/svg"
 width="2500.000000pt" height="2500.000000pt" viewBox="0 0 2500.000000 2500.000000"
 preserveAspectRatio="xMidYMid meet">
<metadata>
Created by potrace 1.11, written by Peter Selinger 2001-2013
</metadata>
<g transform="translate(0.000000,2500.000000) scale(0.100000,-0.100000)"
fill="#000000" stroke="none">
<path d="M12360 24934 c-52 -19 -102 -37 -110 -41 -8 -3 -19 -7 -25 -9 -5 -1
-242 -84 -525 -184 -283 -100 -564 -199 -625 -220 -60 -21 -168 -59 -240 -85
-71 -26 -148 -52 -170 -60 -78 -25 -280 -96 -300 -105 -11 -5 -119 -43 -240
-85 -198 -69 -328 -115 -625 -220 -86 -30 -241 -85 -540 -190 -58 -20 -148
-52 -200 -70 -52 -18 -257 -90 -455 -160 -198 -69 -369 -130 -380 -135 -11 -5
-36 -13 -55 -19 -19 -5 -93 -30 -165 -56 -254 -91 -292 -105 -475 -168 -102
-36 -309 -109 -460 -162 -151 -53 -396 -140 -545 -192 -148 -52 -344 -121
-435 -153 -91 -32 -192 -68 -225 -80 -33 -12 -78 -27 -100 -34 -22 -8 -119
-42 -215 -76 -341 -121 -660 -233 -810 -285 -52 -18 -174 -61 -270 -95 -262
-93 -524 -185 -725 -255 -99 -34 -335 -118 -525 -185 -190 -67 -428 -151 -530
-187 -282 -99 -352 -123 -385 -136 -16 -6 -34 -12 -40 -13 -5 -1 -68 -23 -140
-49 -71 -26 -220 -78 -330 -117 -207 -72 -488 -171 -658 -231 -54 -19 -100
-37 -103 -40 -4 -4 4 -83 21 -217 3 -19 7 -55 10 -80 3 -25 9 -79 14 -120 6
-41 13 -100 16 -131 3 -31 7 -66 10 -77 2 -11 6 -49 9 -84 3 -34 8 -74 11 -88
3 -13 7 -49 10 -80 3 -31 7 -64 9 -75 2 -11 7 -54 11 -95 4 -41 9 -78 10 -81
2 -3 6 -36 9 -73 4 -38 8 -80 11 -95 2 -14 7 -48 10 -76 3 -27 7 -63 10 -80 2
-16 7 -57 10 -90 8 -72 13 -118 20 -165 7 -49 13 -106 20 -170 3 -30 8 -64 10
-75 3 -11 7 -47 10 -80 6 -62 23 -211 30 -255 2 -14 6 -50 10 -81 3 -31 7 -65
9 -76 2 -10 7 -48 10 -84 4 -36 8 -76 11 -90 2 -13 9 -69 15 -124 6 -55 13
-116 16 -135 3 -19 7 -53 9 -75 4 -40 10 -88 21 -167 7 -55 11 -88 18 -168 4
-36 9 -76 11 -90 5 -25 9 -55 20 -160 3 -30 8 -66 10 -80 4 -25 10 -77 21
-167 5 -47 11 -97 19 -158 2 -16 9 -73 15 -125 6 -52 13 -111 15 -130 13 -99
19 -154 29 -245 4 -33 9 -71 11 -85 2 -14 7 -50 10 -80 3 -30 8 -71 10 -90 3
-19 7 -57 10 -85 3 -27 8 -61 10 -75 2 -14 7 -47 10 -75 19 -170 35 -302 40
-335 2 -14 6 -50 10 -80 3 -30 8 -71 10 -90 2 -19 7 -57 10 -85 3 -27 12 -102
20 -165 8 -63 17 -141 20 -173 4 -32 8 -67 10 -77 2 -10 6 -45 10 -77 3 -32 8
-69 10 -83 2 -14 7 -54 10 -90 4 -36 9 -72 10 -80 2 -8 6 -44 10 -80 3 -36 8
-76 10 -90 2 -14 7 -50 10 -80 4 -30 8 -68 10 -85 2 -16 13 -109 25 -205 11
-96 23 -188 25 -205 2 -16 7 -57 10 -90 3 -33 8 -71 10 -85 2 -14 7 -47 10
-75 3 -27 10 -84 15 -125 5 -41 11 -95 14 -120 3 -25 8 -63 11 -85 2 -22 7
-60 10 -85 3 -25 7 -61 10 -80 4 -31 7 -59 21 -180 2 -19 6 -51 9 -70 7 -54
14 -110 20 -170 3 -30 8 -66 10 -80 2 -14 6 -54 10 -90 3 -36 8 -72 10 -80 2
-8 7 -44 10 -80 3 -36 8 -72 10 -80 2 -8 6 -46 10 -83 3 -37 8 -76 10 -86 2
-10 6 -44 9 -76 4 -32 9 -72 11 -89 2 -17 7 -53 10 -81 3 -27 10 -86 15 -130
15 -113 19 -143 25 -200 5 -48 51 -433 60 -505 3 -19 7 -53 10 -75 2 -22 6
-56 9 -75 2 -19 7 -60 11 -90 3 -30 10 -89 15 -130 5 -41 12 -97 15 -125 3
-27 8 -66 10 -85 3 -19 7 -53 10 -75 2 -22 14 -116 25 -210 12 -93 23 -186 25
-205 7 -70 15 -136 20 -165 2 -16 7 -51 10 -77 7 -70 15 -134 25 -218 5 -41
12 -97 15 -125 3 -27 7 -63 10 -80 3 -16 7 -52 10 -80 13 -124 25 -227 30
-250 2 -11 7 -51 10 -90 4 -38 8 -72 10 -75 1 -3 6 -36 9 -75 4 -38 9 -81 11
-95 5 -35 14 -116 20 -170 7 -60 15 -122 20 -151 2 -13 6 -55 10 -92 3 -37 8
-76 10 -85 1 -9 6 -46 10 -82 8 -78 12 -112 25 -210 5 -41 12 -97 15 -125 3
-27 8 -63 10 -80 3 -16 7 -50 9 -75 3 -25 8 -64 11 -85 2 -22 11 -96 20 -165
8 -69 17 -150 21 -180 4 -30 8 -64 9 -75 3 -31 16 -137 21 -164 2 -14 6 -54 9
-90 4 -36 8 -73 10 -81 2 -8 7 -44 10 -80 4 -36 8 -76 10 -90 2 -14 7 -50 10
-80 3 -30 8 -73 11 -95 3 -22 7 -51 9 -65 2 -14 6 -47 9 -75 12 -103 27 -231
31 -255 2 -14 6 -50 9 -80 3 -30 8 -71 10 -90 3 -19 8 -59 11 -89 4 -30 8 -61
10 -70 1 -9 6 -48 10 -86 l7 -71 136 -74 c75 -41 163 -90 197 -108 33 -19 87
-48 120 -66 33 -19 83 -46 110 -61 28 -15 75 -41 105 -58 138 -74 193 -105
305 -167 66 -37 147 -82 180 -99 33 -18 78 -42 100 -55 79 -44 516 -284 640
-351 39 -21 84 -47 100 -57 17 -10 37 -21 45 -25 8 -4 146 -79 305 -166 160
-88 315 -173 345 -190 30 -16 118 -65 195 -107 77 -43 172 -94 210 -115 39
-21 96 -53 128 -71 32 -19 59 -34 61 -34 2 0 72 -38 156 -85 84 -47 154 -85
156 -85 2 0 29 -15 61 -34 32 -18 90 -50 128 -71 39 -21 178 -97 310 -170 132
-72 269 -148 305 -167 69 -38 132 -73 205 -113 88 -49 131 -72 195 -107 36
-20 85 -47 110 -61 140 -77 300 -166 405 -222 39 -21 84 -46 100 -56 17 -10
57 -32 90 -50 89 -47 166 -89 200 -109 28 -16 115 -64 210 -115 22 -12 112
-62 200 -110 88 -49 178 -98 200 -110 106 -58 154 -84 195 -107 61 -34 127
-70 315 -173 88 -48 203 -111 255 -140 52 -29 160 -89 240 -133 80 -43 168
-92 195 -107 28 -15 145 -79 260 -143 116 -63 275 -151 355 -195 80 -44 170
-94 200 -110 30 -16 145 -79 255 -140 278 -153 262 -144 450 -247 94 -51 184
-101 200 -110 17 -9 171 -95 344 -190 l315 -173 35 19 c39 20 164 89 221 121
32 18 368 204 470 261 93 52 587 325 630 350 25 13 88 48 140 77 52 29 136 75
187 103 51 28 127 70 170 93 43 23 85 48 94 55 8 8 19 14 24 14 4 0 42 20 84
44 42 24 101 57 131 73 30 17 219 122 420 233 489 271 485 269 608 336 26 14
72 41 103 60 31 19 59 34 62 34 3 0 79 41 169 91 90 51 183 103 208 117 25 13
68 37 95 52 28 15 70 39 95 52 25 14 61 34 80 45 19 11 107 59 195 108 88 48
214 118 280 155 66 37 145 81 175 97 88 48 153 84 185 103 31 18 80 45 195
108 36 19 99 54 140 77 41 24 100 56 130 72 30 17 73 40 95 53 22 12 74 41
115 63 41 22 80 43 85 47 6 4 37 22 70 40 70 38 119 65 235 130 47 26 108 60
135 75 28 15 73 40 100 55 28 15 70 39 95 52 25 14 61 34 80 45 19 11 87 48
150 83 63 35 131 72 150 83 19 11 55 31 80 45 25 13 149 82 275 152 127 70
374 208 550 305 176 98 340 189 365 203 25 14 68 37 95 52 28 15 106 58 175
97 69 38 157 87 195 108 39 21 95 52 125 70 30 17 62 34 70 38 8 4 33 18 55
30 22 13 81 45 130 72 50 26 95 51 100 55 10 8 231 130 353 197 35 19 121 66
190 105 70 39 146 82 170 95 42 23 126 69 187 103 17 9 65 36 107 59 43 24 80
46 83 51 5 8 19 104 30 200 3 30 8 71 10 90 3 19 7 55 10 80 3 25 7 61 10 80
2 19 7 60 11 90 17 157 25 224 29 250 5 30 12 84 20 165 4 33 8 71 10 85 6 40
13 101 20 161 3 31 7 65 9 75 2 11 7 48 11 84 3 36 8 76 10 90 2 14 6 50 10
80 3 30 8 66 10 80 2 14 7 52 10 85 4 33 8 74 10 90 3 17 7 55 10 85 3 30 8
66 10 80 4 25 9 61 20 160 3 30 8 71 10 90 3 19 7 55 10 80 3 25 8 65 11 90 3
25 7 62 10 83 17 143 45 372 49 397 2 14 6 52 9 85 4 33 8 71 11 85 2 14 7 50
10 80 3 30 7 71 10 90 2 19 7 58 10 85 8 69 14 113 20 160 3 22 7 61 10 86 2
26 6 60 9 75 3 16 8 58 11 94 4 36 9 73 11 83 2 10 6 46 9 80 6 62 11 100 20
167 3 19 7 58 10 85 3 28 12 102 20 165 8 63 17 140 20 170 3 30 8 64 10 75 2
11 7 47 10 80 3 33 12 110 20 170 8 61 17 135 20 165 3 30 8 73 11 95 3 22 7
57 9 78 11 86 14 115 20 167 3 30 8 66 10 80 2 14 7 50 10 80 3 30 7 64 9 75
3 18 8 55 21 180 3 22 7 56 9 75 3 19 8 60 11 90 4 30 8 65 10 76 2 12 6 48
10 80 3 33 8 73 10 90 3 17 7 57 11 89 3 32 7 66 9 76 2 10 6 49 10 86 3 37 8
79 11 93 2 14 6 43 9 65 10 82 17 141 20 165 2 14 7 54 10 90 4 36 9 74 11 85
2 11 6 47 9 80 3 33 7 71 10 85 2 14 7 50 10 80 3 30 7 66 10 80 4 22 7 51 20
180 2 19 7 53 10 75 3 22 7 58 10 80 2 22 7 58 10 80 3 22 7 63 10 90 3 28 7
61 10 75 2 14 7 57 11 95 3 39 8 79 10 90 2 11 6 43 9 70 4 28 8 61 10 75 2
14 7 54 10 90 4 36 8 72 10 80 1 8 6 44 10 80 3 36 8 76 10 90 2 14 7 50 10
80 3 30 8 66 10 80 2 14 7 54 11 90 4 36 8 72 9 80 1 8 5 47 10 85 4 39 9 78
11 89 2 10 6 44 9 75 4 31 8 67 10 81 2 14 7 52 10 85 4 33 8 71 10 85 7 47
14 105 25 205 6 55 13 111 15 125 2 14 6 50 10 80 3 30 8 73 11 95 3 22 7 56
9 75 2 19 9 71 14 115 6 44 13 105 16 135 3 30 8 62 10 70 2 8 6 46 10 83 3
37 8 76 10 85 1 9 6 46 10 82 4 36 9 79 11 95 2 17 6 53 9 80 3 28 8 66 10 85
3 19 7 53 9 75 11 89 27 222 31 245 2 14 6 52 10 85 3 33 8 71 10 85 2 14 7
52 11 85 3 33 7 71 9 85 1 14 6 50 9 80 4 30 8 71 11 90 13 101 35 282 41 335
3 33 8 68 10 78 2 10 6 45 9 78 4 33 8 69 10 80 2 11 7 50 10 87 4 37 8 78 10
92 2 14 7 48 10 75 3 28 8 61 10 75 3 14 7 57 11 95 3 39 7 72 9 75 2 3 6 39
10 80 3 41 8 82 10 90 2 8 7 44 10 80 4 36 9 79 11 95 2 17 6 50 9 75 3 25 7
61 10 80 3 19 7 60 10 90 3 30 8 66 10 80 2 14 7 52 11 85 3 33 8 67 9 75 2 8
6 47 10 85 4 39 9 78 11 87 1 9 6 48 9 85 4 37 9 76 10 85 2 9 7 48 10 85 4
37 8 75 10 83 4 15 10 61 19 150 3 25 8 61 11 80 2 19 7 55 9 80 3 25 8 65 11
90 8 66 13 108 20 170 4 30 8 66 10 80 2 14 7 54 10 90 4 36 9 73 11 83 2 10
6 48 10 85 3 36 7 73 9 82 1 8 6 42 9 75 4 33 9 71 10 85 2 14 7 52 11 85 3
33 9 71 11 85 2 14 6 55 10 91 5 64 5 67 -18 71 -12 3 -142 47 -288 97 -146
51 -296 103 -335 116 -84 28 -318 108 -715 245 -546 188 -934 321 -1105 380
-93 32 -237 81 -320 110 -255 88 -497 171 -575 197 -41 13 -84 28 -95 33 -11
5 -67 25 -125 44 -58 19 -224 76 -370 126 -146 50 -290 100 -320 110 -62 21
-632 217 -845 290 -77 27 -291 100 -475 163 -184 64 -474 163 -645 222 -170
59 -328 112 -350 120 -22 7 -166 56 -320 110 -154 53 -311 107 -350 120 -38
13 -189 64 -335 115 -146 51 -303 105 -350 120 -47 16 -191 65 -320 110 -129
45 -266 92 -305 105 -38 13 -182 62 -320 110 -137 47 -281 97 -320 110 -38 13
-124 42 -190 65 -66 23 -223 77 -350 120 -126 44 -336 115 -465 160 -129 45
-280 96 -335 115 -86 29 -377 129 -760 262 -55 19 -107 36 -115 38 -8 2 -91
31 -185 63 -93 33 -179 62 -190 64 -11 3 -63 -10 -115 -28z"/>
</g>
</svg>
